<svg  viewBox="0 0 24 24" fill="none" xmlns="http://www.w3.org/2000/svg">
<path d="M8.40625 19.6967C8.40625 18.9493 9.01067 18.3434 9.75625 18.3434C10.5018 18.3434 11.1063 18.9493 11.1063 19.6967C11.1063 20.4441 10.5018 21.05 9.75625 21.05C9.01067 21.05 8.40625 20.4441 8.40625 19.6967Z" fill="#141414"/>
<path d="M15.8418 19.6967C15.8418 18.9493 16.4462 18.3434 17.1918 18.3434C17.9374 18.3434 18.5418 18.9493 18.5418 19.6967C18.5418 20.4441 17.9374 21.05 17.1918 21.05C16.4462 21.05 15.8418 20.4441 15.8418 19.6967Z" fill="#141414"/>
<path d="M3 3.94995H4.6398C4.85499 3.94995 5.04604 4.08763 5.11412 4.29177L8.21064 13.5768C8.48296 14.3934 9.24717 14.9441 10.1079 14.9441H16.8498C17.7309 14.9441 18.5082 14.3676 18.7638 13.5244L20.8044 6.79386C20.9018 6.47275 20.6615 6.14878 20.3259 6.14878H9.99994" stroke="#141414" stroke-width="2" stroke-linecap="round" stroke-linejoin="round"/>
</svg>
